<?xml version="1.0" encoding="UTF-8"?>
<svg width="60px" height="60px" viewBox="0 0 60 60" version="1.1" xmlns="http://www.w3.org/2000/svg" xmlns:xlink="http://www.w3.org/1999/xlink">
    <!-- Generator: Sketch 52.6 (67491) - http://www.bohemiancoding.com/sketch -->
    <title>3</title>
    <desc>Created with Sketch.</desc>
    <defs>
        <polygon id="path-1" points="0.125874126 0.0157657343 7.67832168 0.0157657343 7.67832168 12.4300699 0.125874126 12.4300699"></polygon>
    </defs>
    <g id="3" stroke="none" stroke-width="1" fill="none" fill-rule="evenodd">
        <g id="Group-20" transform="translate(8.000000, 8.000000)">
            <path d="M22.4685315,27.6135734 C19.2587413,27.6135734 17.5122378,26.8111259 17.3234266,26.5751119 L17.3234266,24.4981888 C18.6923077,25.0647797 20.5804196,25.3479965 22.4685315,25.3479965 C24.3566434,25.3479965 26.2447552,25.0647797 27.6136364,24.5453916 L27.6136364,26.5280664 C27.3304196,26.8583287 25.5367133,27.6135734 22.4685315,27.6135734 Z M17.3234266,20.3917028 C18.6451049,20.957979 20.5804196,21.2413531 22.4685315,21.2413531 C24.3566434,21.2413531 26.2447552,20.957979 27.6136364,20.4387483 L27.6136364,22.4214231 C27.3776224,22.7518427 25.6311189,23.5069301 22.4685315,23.5069301 C19.2587413,23.5069301 17.5122378,22.7046399 17.3234266,22.4684685 L17.3234266,20.3917028 Z M27.5664336,18.3146224 C27.1888112,18.6922448 25.4895105,19.3532413 22.4685315,19.3532413 C19.4003497,19.3532413 17.701049,18.6451993 17.3706294,18.3618252 C17.7482517,17.9842028 19.4475524,17.323521 22.4685315,17.323521 C25.5367133,17.323521 27.236014,18.0315629 27.5664336,18.3146224 Z M29.4545455,18.3618252 C29.4545455,16.379465 25.9615385,15.4824545 22.4685315,15.4824545 C18.9755245,15.4824545 15.4825175,16.379465 15.4825175,18.3618252 L15.4825175,26.6223147 C15.4825175,28.6049895 18.9755245,29.5016853 22.4685315,29.5016853 C25.9615385,29.5016853 29.4545455,28.6049895 29.4545455,26.6223147 L29.4545455,18.3618252 Z" id="Fill-1" fill="#000000"></path>
            <path d="M22.4685315,1.88812762 C23.506993,1.88812762 24.3566434,2.73777797 24.3566434,3.77623951 C24.3566434,4.81470105 23.506993,5.6643514 22.4685315,5.6643514 C21.4300699,5.6643514 20.5804196,4.81470105 20.5804196,3.77623951 C20.5804196,2.73777797 21.4300699,1.88812762 22.4685315,1.88812762 M21.5244755,7.4108549 L21.5244755,11.4702955 C21.5244755,11.9895262 21.9493007,12.4143514 22.4685315,12.4143514 C22.9877622,12.4143514 23.4125874,11.9895262 23.4125874,11.4702955 L23.4125874,7.4108549 C25.0174825,6.98602972 26.2447552,5.52274301 26.2447552,3.77623951 C26.2447552,1.69931643 24.5454545,1.57342657e-05 22.4685315,1.57342657e-05 C20.3916084,1.57342657e-05 18.6923077,1.69931643 18.6923077,3.77623951 C18.6923077,5.5699458 19.9195804,6.98602972 21.5244755,7.4108549" id="Fill-3" fill="#000000"></path>
            <path d="M9.25174825,7.36362063 C10.2902098,7.36362063 11.1398601,8.21327098 11.1398601,9.25173252 C11.1398601,10.2901941 10.2902098,11.1398444 9.25174825,11.1398444 C8.21328671,11.1398444 7.36363636,10.2901941 7.36363636,9.25173252 C7.36363636,8.21327098 8.21328671,7.36362063 9.25174825,7.36362063 M9.25174825,13.0279563 C9.95979021,13.0279563 10.5734266,12.8391451 11.1398601,12.5087255 L14.0192308,15.3880962 C14.208042,15.5769073 14.4440559,15.6713129 14.6800699,15.6713129 C14.9160839,15.6713129 15.1520979,15.5769073 15.3409091,15.3880962 C15.7185315,15.0104738 15.7185315,14.4440402 15.3409091,14.0664178 L12.4615385,11.1870472 C12.791958,10.6206136 12.9807692,9.95977448 12.9807692,9.29893531 C12.9807692,7.22201224 11.2814685,5.52271154 9.20454545,5.52271154 C7.12762238,5.52271154 5.42832168,7.22201224 5.42832168,9.29893531 C5.42832168,11.3758584 7.22202797,13.0279563 9.25174825,13.0279563" id="Fill-5" fill="#000000"></path>
            <path d="M3.82342657,24.3567063 C2.78496503,24.3567063 1.93531469,23.5070559 1.93531469,22.4685944 C1.93531469,21.4299755 2.78496503,20.5804825 3.82342657,20.5804825 C4.86188811,20.5804825 5.71153846,21.4299755 5.71153846,22.4685944 C5.71153846,23.5070559 4.86188811,24.3567063 3.82342657,24.3567063 M7.41083916,23.4126503 L11.4702797,23.4126503 C11.9895105,23.4126503 12.4143357,22.9878252 12.4143357,22.4685944 C12.4143357,21.9493636 11.9895105,21.5245385 11.4702797,21.5245385 L7.41083916,21.5245385 C6.98601399,19.9196434 5.52272727,18.6923706 3.77622378,18.6923706 C1.6993007,18.6923706 0,20.3916713 0,22.4685944 C0,24.5453601 1.6993007,26.2448182 3.77622378,26.2448182 C5.56993007,26.2448182 6.98601399,25.0173881 7.41083916,23.4126503" id="Fill-7" fill="#000000"></path>
            <path d="M9.25174825,37.5734895 C8.21328671,37.5734895 7.36363636,36.7238392 7.36363636,35.6853776 C7.36363636,34.6467587 8.21328671,33.7972657 9.25174825,33.7972657 C10.2902098,33.7972657 11.1398601,34.6467587 11.1398601,35.6853776 C11.1398601,36.7238392 10.3374126,37.5734895 9.25174825,37.5734895 M14.0664336,29.5962168 L11.1870629,32.4755874 C10.6206294,32.1451678 9.95979021,31.9563566 9.29895105,31.9563566 C7.22202797,31.9563566 5.52272727,33.6556573 5.52272727,35.7325804 C5.52272727,37.8095035 7.22202797,39.5088042 9.29895105,39.5088042 C11.3758741,39.5088042 13.0751748,37.8095035 13.0751748,35.7325804 C13.0751748,35.0245385 12.8863636,34.4107448 12.5559441,33.8444685 L15.4353147,30.9650979 C15.8129371,30.5874755 15.8129371,30.021042 15.4353147,29.6434196 C15.0104895,29.2184371 14.3968531,29.2184371 14.0664336,29.5962168" id="Fill-9" fill="#000000"></path>
            <g id="Group-13" transform="translate(18.566434, 32.506993)">
                <mask id="mask-2" fill="white">
                    <use xlink:href="#path-1"></use>
                </mask>
                <g id="Clip-12"></g>
                <path d="M3.9020979,10.5419895 C2.86363636,10.5419895 2.01398601,9.69233916 2.01398601,8.65387762 C2.01398601,7.61525874 2.86363636,6.76576573 3.9020979,6.76576573 C4.94055944,6.76576573 5.79020979,7.61525874 5.79020979,8.65387762 C5.79020979,9.69233916 4.94055944,10.5419895 3.9020979,10.5419895 M4.84615385,5.0191049 L4.84615385,0.959821678 C4.84615385,0.440590909 4.42132867,0.0157657343 3.9020979,0.0157657343 C3.38286713,0.0157657343 2.95804196,0.440590909 2.95804196,0.959821678 L2.95804196,5.0191049 C1.35314685,5.44408741 0.125874126,6.90721678 0.125874126,8.65387762 C0.125874126,10.7308007 1.82517483,12.4301014 3.9020979,12.4301014 C5.97902098,12.4301014 7.67832168,10.7308007 7.67832168,8.65387762 C7.67832168,6.86017133 6.45104895,5.44408741 4.84615385,5.0191049" id="Fill-11" fill="#000000" mask="url(#mask-2)"></path>
            </g>
            <path d="M35.6853147,37.5734895 C34.6468531,37.5734895 33.7972028,36.7238392 33.7972028,35.6853776 C33.7972028,34.6467587 34.6468531,33.7972657 35.6853147,33.7972657 C36.7237762,33.7972657 37.5734266,34.6467587 37.5734266,35.6853776 C37.5734266,36.7238392 36.7237762,37.5734895 35.6853147,37.5734895 M35.6853147,31.9091538 C34.9772727,31.9091538 34.3636364,32.0978077 33.7972028,32.4283846 L30.9178322,29.549014 C30.5402098,29.1713916 29.9737762,29.1713916 29.5961538,29.549014 C29.2185315,29.926479 29.2185315,30.4930699 29.5961538,30.870535 L32.4755245,33.7499056 C32.1451049,34.3164965 31.9562937,34.9773357 31.9562937,35.6380175 C31.9562937,37.7149406 33.6555944,39.4142413 35.7325175,39.4142413 C37.8094406,39.4142413 39.5087413,37.7149406 39.5087413,35.6380175 C39.4143357,33.6084545 37.715035,31.9091538 35.6853147,31.9091538" id="Fill-14" fill="#000000"></path>
            <path d="M41.1136364,24.3567063 C40.0751748,24.3567063 39.2255245,23.5070559 39.2255245,22.4685944 C39.2255245,21.4299755 40.0751748,20.5804825 41.1136364,20.5804825 C42.1520979,20.5804825 43.0017483,21.4299755 43.0017483,22.4685944 C43.0017483,23.5070559 42.1993007,24.3567063 41.1136364,24.3567063 M41.1136364,18.6923706 C39.3671329,18.6923706 37.9038462,19.9196434 37.479021,21.5245385 L33.4195804,21.5245385 C32.9003497,21.5245385 32.4755245,21.9493636 32.4755245,22.4685944 C32.4755245,22.9878252 32.9003497,23.4126503 33.4195804,23.4126503 L37.479021,23.4126503 C37.9038462,25.0173881 39.3671329,26.2448182 41.1136364,26.2448182 C43.1905594,26.2448182 44.8898601,24.5453601 44.8898601,22.4685944 C44.8898601,20.3916713 43.1905594,18.6923706 41.1136364,18.6923706" id="Fill-16" fill="#000000"></path>
            <path d="M35.6853147,7.36362063 C36.7237762,7.36362063 37.5734266,8.21327098 37.5734266,9.25173252 C37.5734266,10.2901941 36.7237762,11.1398444 35.6853147,11.1398444 C34.6468531,11.1398444 33.7972028,10.2901941 33.7972028,9.25173252 C33.7972028,8.21327098 34.5996503,7.36362063 35.6853147,7.36362063 M30.2097902,15.6241101 C30.4458042,15.6241101 30.6818182,15.5297045 30.8706294,15.3408934 L33.75,12.4615227 C34.3164336,12.7919423 34.9772727,12.9807535 35.6381119,12.9807535 C37.715035,12.9807535 39.4143357,11.2814528 39.4143357,9.20452972 C39.4143357,7.12760664 37.715035,5.42830594 35.6381119,5.42830594 C33.5611888,5.42830594 31.8618881,7.12760664 31.8618881,9.20452972 C31.8618881,9.91257168 32.0506993,10.526208 32.3811189,11.0926416 L29.5017483,13.9720122 C29.1241259,14.3496346 29.1241259,14.9160682 29.5017483,15.2936906 C29.7377622,15.5297045 29.9737762,15.6241101 30.2097902,15.6241101" id="Fill-18" fill="#000000"></path>
        </g>
    </g>
</svg>