<?xml version="1.0" encoding="utf-8"?>
<!-- Generator: Adobe Illustrator 23.0.0, SVG Export Plug-In . SVG Version: 6.00 Build 0)  -->
<svg version="1.1" id="Layer_1" xmlns="http://www.w3.org/2000/svg" xmlns:xlink="http://www.w3.org/1999/xlink" x="0px" y="0px"
	 viewBox="0 0 150.8 23.6" style="enable-background:new 0 0 150.8 23.6;" xml:space="preserve">
<style type="text/css">
	.st0{fill:#FFFFFF;}
</style>
<title>tigerai-logo</title>
<desc>Created with Sketch.</desc>
<g>
	<g>
		<path class="st0" d="M12.4,18.2L12,8.5h0l-4.2,9.7h-3L3.4,4.6h3L7,14.5h0l4.3-9.9h2.8l0.3,9.9h0l4.1-9.9h3l-6.3,13.5H12.4z"/>
		<path class="st0" d="M24.9,8.4l-2.1,9.8h-2.7l2.1-9.8H24.9z M22.5,6.9L23,4.6h2.7l-0.5,2.2H22.5z"/>
		<path class="st0" d="M26.3,7.1l0.5-2.5h11.3l-0.5,2.5h-4.1l-2.3,11h-3l2.3-11H26.3z"/>
		<path class="st0" d="M41.4,8.4l-2.1,9.8h-2.7l2.1-9.8H41.4z M39,6.9l0.5-2.2h2.7l-0.5,2.2H39z"/>
		<path class="st0" d="M50.3,19.6c-0.3,0.5-0.6,1-1.1,1.3c-0.4,0.3-1,0.6-1.6,0.8c-0.6,0.2-1.3,0.2-2.1,0.2c-0.5,0-1-0.1-1.5-0.2
			c-0.5-0.1-0.9-0.3-1.3-0.5c-0.4-0.3-0.7-0.6-1-1c-0.2-0.4-0.4-0.9-0.4-1.5h2.7c0,0.3,0,0.5,0.1,0.6c0.1,0.2,0.2,0.3,0.4,0.4
			c0.2,0.1,0.4,0.2,0.6,0.2c0.2,0.1,0.4,0.1,0.6,0.1c0.4,0,0.8-0.1,1.1-0.3c0.3-0.2,0.5-0.4,0.7-0.7c0.2-0.3,0.4-0.7,0.5-1.1
			c0.1-0.4,0.3-0.9,0.4-1.3l0,0C47.9,17.6,47,18,45.9,18c-0.6,0-1.1-0.1-1.6-0.3c-0.5-0.2-0.9-0.5-1.2-0.8c-0.3-0.4-0.6-0.8-0.7-1.3
			c-0.2-0.5-0.3-1-0.3-1.6c0-0.7,0.1-1.4,0.3-2.1s0.5-1.3,1-1.9c0.4-0.6,0.9-1,1.6-1.4c0.6-0.3,1.3-0.5,2.1-0.5
			c0.7,0,1.3,0.1,1.8,0.4c0.5,0.3,0.9,0.7,1.2,1.4h0l0.3-1.5h2.6l-2,9.3C50.8,18.4,50.6,19,50.3,19.6z M46.3,10.5
			c-0.3,0.2-0.6,0.5-0.9,0.9c-0.2,0.4-0.4,0.8-0.5,1.2c-0.1,0.4-0.2,0.8-0.2,1.2c0,0.3,0,0.6,0.1,0.8c0.1,0.3,0.2,0.5,0.3,0.7
			c0.2,0.2,0.3,0.4,0.6,0.5c0.2,0.1,0.5,0.2,0.8,0.2c0.5,0,0.9-0.1,1.3-0.4c0.4-0.2,0.7-0.5,0.9-0.9c0.2-0.4,0.4-0.8,0.5-1.2
			c0.1-0.4,0.2-0.9,0.2-1.3c0-0.6-0.2-1.1-0.5-1.5s-0.8-0.6-1.5-0.6C47.1,10.1,46.7,10.3,46.3,10.5z"/>
		<path class="st0" d="M56.1,14.1c0,0.1,0,0.1,0,0.2v0.2c0,0.6,0.2,1,0.5,1.4c0.4,0.4,0.9,0.5,1.6,0.5c0.3,0,0.5,0,0.7-0.1
			c0.2-0.1,0.4-0.2,0.5-0.3c0.2-0.1,0.3-0.3,0.4-0.4c0.1-0.2,0.2-0.3,0.3-0.5H63c-0.2,0.6-0.5,1-0.8,1.5c-0.3,0.4-0.6,0.8-1,1.1
			c-0.4,0.3-0.9,0.5-1.4,0.6c-0.5,0.1-1.2,0.2-1.9,0.2c-0.7,0-1.3-0.1-1.8-0.3c-0.5-0.2-1-0.4-1.4-0.8c-0.4-0.4-0.7-0.8-0.9-1.3
			c-0.2-0.5-0.3-1.1-0.3-1.9c0-0.8,0.1-1.5,0.4-2.3c0.3-0.7,0.6-1.4,1.1-1.9c0.5-0.6,1-1,1.7-1.3c0.7-0.3,1.4-0.5,2.3-0.5
			c0.7,0,1.3,0.1,1.9,0.3c0.6,0.2,1,0.4,1.4,0.8c0.4,0.4,0.7,0.8,0.9,1.3c0.2,0.5,0.3,1.2,0.3,1.9c0,0.5-0.1,1-0.2,1.5h-7.2
			C56.1,14,56.1,14,56.1,14.1z M60.8,11.5c0-0.2-0.1-0.5-0.3-0.7c-0.1-0.2-0.3-0.4-0.5-0.5c-0.2-0.1-0.6-0.2-0.9-0.2
			c-0.4,0-0.7,0.1-1,0.2c-0.3,0.1-0.5,0.3-0.8,0.5c-0.2,0.2-0.4,0.4-0.5,0.7c-0.1,0.3-0.3,0.5-0.4,0.8h4.5
			C60.9,12,60.9,11.7,60.8,11.5z"/>
		<path class="st0" d="M68.6,8.4l-0.4,1.8l0,0C68.5,9.5,69,9,69.6,8.6c0.6-0.3,1.3-0.5,2-0.5c0.3,0,0.6,0,0.8,0.1l-0.5,2.6
			c-0.2,0-0.4-0.1-0.6-0.1c-0.2,0-0.4-0.1-0.6-0.1c-0.5,0-1,0.1-1.3,0.3c-0.4,0.2-0.7,0.4-0.9,0.7c-0.2,0.3-0.4,0.6-0.6,1
			c-0.1,0.4-0.3,0.8-0.4,1.2l-0.9,4.3H64l2-9.8H68.6z"/>
	</g>
	<g>
		<path class="st0" d="M79.2,20.4h1.7v-0.6h8v0.6h1.7v-7.2H79.2V20.4z M80.8,14.5h8v1.2h-8V14.5z M80.8,17h8v1.3h-8V17z"/>
		<path class="st0" d="M85.9,12.8h1.4v-0.6h3.2v0.6h1.7V5.1h-6.3V12.8z M87.3,6.6h3.2v4.1h-3.2V6.6z"/>
		<path class="st0" d="M81.1,11c0.2,0.2,0.6,0.5,1.1,0.8l1.9,1c0.4-0.6,0.7-1,0.9-1.3c-1.3-0.5-2.3-1.2-3.1-1.9l0.1-0.1h3.4V8.2H82
			V6.6h2.7V5.2H80l0.6-0.9l-1.5-0.8c-0.7,1.2-1.6,2.3-2.5,3.4c0.3,0.1,0.7,0.4,1.3,0.9c0.2-0.2,0.4-0.4,0.6-0.6
			C78.7,7,78.8,6.8,79,6.6h1.4c0,0.8,0,1.3-0.1,1.5h-3.9v1.4h3.7c-0.4,0.7-0.8,1.2-1.2,1.5c-0.5,0.4-1.3,0.9-2.6,1.3
			c0.4,0.4,0.7,0.8,0.9,1.3c1-0.4,1.7-0.7,2.1-1C80,12.2,80.5,11.7,81.1,11z"/>
		<path class="st0" d="M109.4,18.3c0,0.1-0.3,0.2-0.8,0.2h-1.4c-0.3,0-0.6,0-0.6-0.1c-0.1-0.1-0.2-0.2-0.2-0.4v-2.7v-1.4v-0.1h-4
			c0,0,0,0,0,0h-1.7c0,1.2-0.2,2-0.4,2.6c-0.2,0.6-0.6,1.1-1.1,1.4c-0.5,0.4-1.3,0.7-2.3,1.1l0.7,0.7c0.1,0.1,0.2,0.4,0.4,0.6
			c1.2-0.5,1.8-0.8,1.9-0.9c0.7-0.5,1.1-0.9,1.4-1.2c0.3-0.4,0.6-1,0.8-1.7c0.1-0.3,0.1-0.7,0.2-1.2h2.4v3.4c0,0.5,0.2,0.9,0.6,1.2
			c0.2,0.2,0.8,0.3,1.7,0.3h2c0.6,0,1-0.1,1.2-0.2c0.2,0,0.4-0.2,0.6-0.6c0.3-0.5,0.5-1.1,0.7-1.9c-0.5,0-1.1-0.2-1.7-0.5
			C109.7,17.6,109.6,18.1,109.4,18.3z"/>
		<path class="st0" d="M97.7,13.8c0-0.5,0.1-2.3,0.1-5.3h4.2v1.3l-3.5,0.1l0.1,1.4L102,11v1c0,0.5,0.2,0.8,0.5,1
			c0.3,0.1,0.8,0.1,1.5,0.1h3.7c0.3,0,0.6-0.1,0.8-0.2c0.2-0.1,0.5-0.6,0.9-1.3c-0.1,0-0.3-0.1-0.5-0.2c-0.2-0.1-0.3-0.1-0.3-0.1
			c-0.2,0-0.5-0.2-0.8-0.5c-0.1,0.6-0.3,0.9-0.5,1c-0.1,0.1-0.4,0.1-0.9,0.1h-1.9c-0.4,0-0.7,0-0.7-0.1l-0.1-0.1
			c0,0-0.1-0.1-0.1-0.2V11l5.1-0.3l-0.1-1.3l-5,0.2V8.4h5.5v1.8h1.7V7h-6.9V6.2h4.7V4.8h-4.7V3.7h-1.7V7H96v4.6
			c-0.1,2.1-0.2,3.5-0.4,4.3c-0.2,1-0.6,2-1.2,3c0.3,0.2,0.7,0.7,1.4,1.3l0.9-2c0.3-0.8,0.5-1.5,0.6-1.9
			C97.5,15.7,97.6,14.9,97.7,13.8z"/>
		<polygon class="st0" points="127.7,13 127.7,3.9 125.9,3.9 125.9,13.4 119.5,14.9 120,16.5 125.9,15.1 125.9,20.3 127.7,20.3 
			127.7,14.7 130,14.1 129.7,12.5 		"/>
		<path class="st0" d="M124.8,7.5c-0.7-0.7-1.5-1.4-2.4-2l-1.1,1.2c0.5,0.4,1.3,1.1,2.3,2.1L124.8,7.5z"/>
		<path class="st0" d="M117.7,11.4v-1.2h2.1V8.7h-2.1V5.9l2.2-0.6L119,3.6c-0.7,0.2-1.3,0.4-1.6,0.5c-0.4,0.2-0.7,0.3-1,0.4
			c-1.4,0.4-2.5,0.6-3.2,0.7c0.3,0.7,0.5,1.2,0.6,1.6c0.2,0,0.6-0.1,1.1-0.3c0.6-0.1,0.9-0.2,1-0.2v2.3h-2.6v1.5h2.6
			c-0.3,1.2-0.8,2.2-1.3,3c-0.5,0.8-1.1,1.6-1.9,2.4c0.2,0.1,0.5,0.3,0.7,0.6c0.3,0.4,0.5,0.7,0.6,1c0.5-0.7,0.8-1.1,0.9-1.2
			c0.1-0.1,0.2-0.3,0.3-0.4c0,0,0.1-0.1,0.2-0.3s0.2-0.3,0.3-0.6c0.1-0.2,0.2-0.5,0.3-0.6v6.2h1.7v-6.8c0.4,0.4,0.9,0.8,1.4,1.1
			l0.8-1.7C119.4,12.6,118.7,12.1,117.7,11.4z"/>
		<path class="st0" d="M123.8,11c-0.7-0.6-1.5-1.2-2.4-1.7l-0.9,1.3c1,0.6,1.8,1.2,2.4,1.8L123.8,11z"/>
		<path class="st0" d="M137.3,11c-0.9,0.3-1.5,0.6-1.7,0.6V8.9h1.8V7.6h-1.8V3.8H134v3.7h-2.2v1.4h2.2v3.2c-0.1,0-1,0.3-2.4,0.8
			l0.4,1.6c0.7-0.2,1.4-0.5,2.1-0.8v4.8c0,0.1,0,0.2-0.1,0.3c0,0-0.1,0.1-0.1,0.1h-1.5c0.3,0.7,0.5,1.2,0.5,1.6
			c1.2-0.1,2-0.2,2.3-0.4c0.3-0.2,0.5-0.6,0.5-1.3v-5.5c0.8-0.4,1.4-0.7,1.8-0.9L137.3,11z"/>
		<path class="st0" d="M146,17.9c-0.7-0.4-1.4-0.9-2.2-1.6c1-1.1,1.6-1.8,1.9-2.3c0.7-1.1,1.2-1.8,1.4-2.4l-1-0.9l-0.1,0.1h-2.4V8.3
			h4.4V6.7h-4.4V3.8h-1.7v2.9h-4v1.6h4v2.4h-3.5V12h1.2c0.3,1.1,0.6,1.8,0.8,2.3c0.1,0.3,0.5,1,1.1,1.9c-0.8,0.5-1.5,0.9-2.2,1.3
			c-0.8,0.4-1.7,0.8-2.8,1.2c0.2,0.4,0.5,0.9,0.9,1.5c1.9-0.7,3.6-1.7,5.2-2.8c0.9,0.8,1.6,1.4,2.2,1.7c0.4,0.2,0.9,0.5,1.5,0.8
			c0.6,0.3,1,0.5,1.1,0.6c0.4-0.7,0.8-1.3,1.2-1.7C147.8,18.7,147,18.4,146,17.9z M141.8,13.8c-0.1-0.2-0.3-0.8-0.6-1.7h3.8
			c-0.2,0.6-0.5,1-0.6,1.2c-0.3,0.4-0.8,1.1-1.7,1.9C142.4,14.8,142.1,14.3,141.8,13.8z"/>
	</g>
</g>
</svg>
