<?xml version="1.0" encoding="UTF-8"?>
<svg width="60px" height="60px" viewBox="0 0 60 60" version="1.1" xmlns="http://www.w3.org/2000/svg" xmlns:xlink="http://www.w3.org/1999/xlink">
    <!-- Generator: Sketch 52.6 (67491) - http://www.bohemiancoding.com/sketch -->
    <title>4</title>
    <desc>Created with Sketch.</desc>
    <defs>
        <polygon id="path-1" points="0 0.0472657343 38.5440178 0.0472657343 38.5440178 44.8425629 0 44.8425629"></polygon>
    </defs>
    <g id="4" stroke="none" stroke-width="1" fill="none" fill-rule="evenodd">
        <g id="Group-10" transform="translate(11.000000, 8.000000)">
            <g id="Group-3" transform="translate(0.000000, 0.110140)">
                <mask id="mask-2" fill="white">
                    <use xlink:href="#path-1"></use>
                </mask>
                <g id="Clip-2"></g>
                <path d="M35.8268916,24.1206923 C35.7796888,24.2150979 35.6854406,24.3567063 35.4494266,24.3567063 L33.1363322,24.3567063 C32.1452308,24.3567063 31.2954231,25.1591538 31.2954231,26.197458 L31.2954231,32.5226329 C31.2954231,33.2306748 30.7291469,33.8444685 29.9737448,33.8444685 L25.253465,33.8444685 C24.1207552,33.8444685 23.1766993,34.7885245 23.1766993,35.9213916 L23.1293392,42.2937692 L9.62933916,41.0663392 L9.62933916,32.0978077 C9.62933916,31.106549 9.20451399,30.2096958 8.44926923,29.549014 C4.86185664,26.4808322 2.64332517,21.7133497 2.64332517,17.0874755 C2.64332517,9.15724825 9.06290559,2.73782517 16.9929755,2.73782517 C24.4510175,2.69062238 30.5873811,8.30775524 31.2482203,15.7656399 C31.2954231,16.3794336 31.4842343,16.9930699 31.8146538,17.5595035 L35.8268916,23.6486643 C35.9214545,23.8373182 35.8740944,24.0261294 35.8268916,24.1206923 M38.0455804,22.2325804 L34.0803881,16.1906224 C33.9859825,16.0016538 33.8915769,15.813 33.8915769,15.5296259 C33.1363322,6.70286014 25.8671014,0.0472657343 16.9929755,0.0472657343 C7.64682168,0.0472657343 -3.14685315e-05,7.64691608 -3.14685315e-05,17.0402727 C-3.14685315e-05,22.4685944 2.54891958,27.8969161 6.74996853,31.4843287 C6.84437413,31.5785769 7.03318531,31.7675455 7.03318531,32.0035594 L7.03318531,40.9720909 C7.03318531,42.3881748 8.07164685,43.521042 9.48773077,43.662493 L22.9406853,44.8425629 L23.1766993,44.8425629 C23.8373811,44.8425629 24.4982203,44.606549 25.017451,44.134521 C25.5838846,43.6152902 25.9143042,42.9072483 25.9143042,42.1521608 L25.9143042,36.4406224 L30.0681503,36.4406224 C32.239479,36.4406224 34.0333427,34.6467587 34.0333427,32.4755874 L34.0333427,26.9528601 L35.496472,26.9528601 C36.6294965,26.9528601 37.6678007,26.3392238 38.1870315,25.347965 C38.7062622,24.3567063 38.6590594,23.1766364 38.0455804,22.2325804" id="Fill-1" fill="#000000" mask="url(#mask-2)"></path>
            </g>
            <path d="M20.8164965,11.5332483 C20.3444685,11.5332483 19.9668462,11.1556259 19.9668462,10.6835979 C19.9668462,10.2115699 20.3444685,9.83394755 20.8164965,9.83394755 C21.2885245,9.83394755 21.6659895,10.2115699 21.6659895,10.6835979 C21.6659895,11.1556259 21.2885245,11.5332483 20.8164965,11.5332483 M20.8164965,7.94583566 C19.6364266,7.94583566 18.6451678,8.70108042 18.2203427,9.73954196 L14.9161469,9.73954196 C14.3969161,9.73954196 13.9720909,10.1643671 13.9720909,10.6835979 L13.9720909,13.5157657 L10.4790839,13.5157657 C9.95985315,13.5157657 9.53502797,13.9405909 9.53502797,14.4598217 C9.53502797,14.9790524 9.95985315,15.4038776 10.4790839,15.4038776 L14.9161469,15.4038776 C15.4353776,15.4038776 15.8602028,14.9790524 15.8602028,14.4598217 L15.8602028,11.6276538 L18.2203427,11.6276538 C18.5978077,12.6661154 19.5890664,13.4213601 20.8164965,13.4213601 C22.326986,13.4213601 23.6013042,12.1940874 23.6013042,10.6363951 C23.6013042,9.0787028 22.3740315,7.94583566 20.8164965,7.94583566" id="Fill-4" fill="#000000"></path>
            <path d="M20.8164965,19.6048951 C20.3444685,19.6048951 19.9668462,19.2272727 19.9668462,18.7552448 C19.9668462,18.2832168 20.3444685,17.9055944 20.8164965,17.9055944 C21.2885245,17.9055944 21.6659895,18.2832168 21.6659895,18.7552448 C21.6659895,19.2272727 21.2885245,19.6048951 20.8164965,19.6048951 M20.8164965,15.9702797 C19.6364266,15.9702797 18.6451678,16.7255245 18.2203427,17.763986 L8.11894406,17.763986 C7.59971329,17.763986 7.17488811,18.1888112 7.17488811,18.708042 C7.17488811,19.2272727 7.59971329,19.6520979 8.11894406,19.6520979 L18.2675455,19.6520979 C18.6451678,20.6905594 19.6364266,21.4458042 20.8636993,21.4458042 C22.3740315,21.4458042 23.6486643,20.2185315 23.6486643,18.6608392 C23.6013042,17.2447552 22.3740315,15.9702797 20.8164965,15.9702797" id="Fill-6" fill="#000000"></path>
            <path d="M20.8164965,27.6293706 C20.3444685,27.6293706 19.9668462,27.2517483 19.9668462,26.7797203 C19.9668462,26.3076923 20.3444685,25.9300699 20.8164965,25.9300699 C21.2885245,25.9300699 21.6659895,26.3076923 21.6659895,26.7797203 C21.6659895,27.2517483 21.2885245,27.6293706 20.8164965,27.6293706 M20.8164965,24.041958 C19.6364266,24.041958 18.6451678,24.7972028 18.2203427,25.8356643 L15.8602028,25.8356643 L15.8602028,23.0034965 C15.8602028,22.4842657 15.4353776,22.0594406 14.9161469,22.0594406 L10.4790839,22.0594406 C9.95985315,22.0594406 9.53502797,22.4842657 9.53502797,23.0034965 C9.53502797,23.5227273 9.95985315,23.9475524 10.4790839,23.9475524 L13.9720909,23.9475524 L13.9720909,26.7797203 C13.9720909,27.298951 14.3969161,27.7237762 14.9161469,27.7237762 L18.2203427,27.7237762 C18.5978077,28.7622378 19.5890664,29.5174825 20.8164965,29.5174825 C22.326986,29.5174825 23.6013042,28.2902098 23.6013042,26.7325175 C23.6013042,25.1748252 22.3740315,24.041958 20.8164965,24.041958" id="Fill-8" fill="#000000"></path>
        </g>
    </g>
</svg>