<?xml version="1.0" encoding="UTF-8"?>
<svg width="60px" height="60px" viewBox="0 0 60 60" version="1.1" xmlns="http://www.w3.org/2000/svg" xmlns:xlink="http://www.w3.org/1999/xlink">
    <!-- Generator: Sketch 52.6 (67491) - http://www.bohemiancoding.com/sketch -->
    <title>7</title>
    <desc>Created with Sketch.</desc>
    <g id="7" stroke="none" stroke-width="1" fill="none" fill-rule="evenodd">
        <g id="brand-3-2" transform="translate(10.000000, 8.000000)" fill="#000000">
            <g id="brand-3">
                <path d="M33.0601614,3.83944276 C32.7183215,3.66230714 32.3764815,3.57373933 32.0346416,3.75087495 L31.9491816,3.75087495 C31.7782617,3.83944276 31.6073417,3.92801056 31.5218817,4.10514618 L28.7871624,8.26783312 C28.6162424,8.53353654 28.5307824,8.79923996 28.6162424,9.15351119 C28.7017024,9.41921461 28.7871624,9.68491803 29.0435423,9.86205365 C29.3853822,10.1277571 29.8126821,10.1277571 30.1545221,9.95062145 C30.325442,9.86205365 30.496362,9.77348584 30.581822,9.59635022 L33.3165413,5.43366329 C33.4874613,5.16795986 33.5729213,4.90225644 33.4874613,4.54798521 C33.4874613,4.28228179 33.3165413,4.01657837 33.0601614,3.83944276 Z" id="Path"></path>
                <path d="M5.8180935,3.88858937 C6.0852459,3.61807954 6.5304999,3.61807954 6.8867031,3.70824949 L6.9757539,3.70824949 C7.15385549,3.79841943 7.33195709,3.88858937 7.42100789,4.06892926 L10.5377859,8.12657675 C10.7158875,8.39708658 10.8049383,8.66759641 10.8049383,9.02827619 C10.8049383,9.29878602 10.6268367,9.6594658 10.3596843,9.83980569 C10.0034811,10.1103155 9.55822708,10.1103155 9.20202388,10.0201456 C9.02392228,9.92997563 8.84582068,9.83980569 8.75676988,9.6594658 L5.6399919,5.60181831 C5.46189031,5.33130848 5.37283951,5.06079865 5.37283951,4.70011887 C5.46189031,4.3394391 5.55094111,4.06892926 5.8180935,3.88858937 Z" id="Path"></path>
                <path d="M38.6226523,22.7674775 L30.0754225,13.3876835 C29.899191,13.1246987 29.5467279,13.037037 29.1942648,13.037037 L10.2493741,13.037037 C10.2493741,13.037037 10.1612584,13.037037 10.1612584,13.037037 C9.89691106,13.037037 9.63256374,13.2123603 9.4563322,13.3876835 L0.732870911,22.7674775 C0.292292058,23.2057857 0.380407829,23.9070787 0.732870911,24.3453868 L18.7966039,42.3160202 C18.9728354,42.4913434 19.3252985,42.6666667 19.5896458,42.6666667 C19.8539931,42.6666667 20.2064562,42.579005 20.3826878,42.3160202 L38.6226523,24.4330484 C39.0632311,23.9947403 39.0632311,23.2057857 38.6226523,22.7674775 Z M35.1861372,22.416831 L28.2249913,22.416831 L24.7884763,15.3162393 L28.6655702,15.3162393 L35.1861372,22.416831 Z M25.669634,24.6960333 L19.6777616,38.5465702 L13.6858892,24.6960333 L25.669634,24.6960333 Z M13.774005,22.416831 L17.21052,15.3162393 L22.2331189,15.3162393 L25.669634,22.416831 L13.774005,22.416831 Z M14.5670469,15.3162393 L11.1305318,22.416831 L4.25750174,22.416831 L10.7780688,15.3162393 L14.5670469,15.3162393 Z M11.2186476,24.6960333 L16.3293623,36.4426912 L4.43373328,24.6960333 L11.2186476,24.6960333 Z M35.0099057,24.6960333 L23.1142766,36.5303528 L28.2249913,24.7836949 L35.0099057,24.7836949 L35.0099057,24.6960333 Z" id="Shape" fill-rule="nonzero"></path>
                <path d="M19.4926383,1.18518519 C19.1268404,1.18518519 18.7610425,1.36367693 18.4866941,1.72066042 L18.4866941,1.80990629 C18.3952446,1.98839804 18.3037952,2.16688978 18.3037952,2.4346274 L18.2123457,7.43239625 C18.2123457,7.70013387 18.3037952,8.05711736 18.5781436,8.2356091 C18.7610425,8.50334672 19.1268404,8.59259259 19.4011888,8.59259259 C19.8584362,8.59259259 20.2242341,8.41410085 20.4071331,8.05711736 C20.4985825,7.87862561 20.590032,7.70013387 20.590032,7.43239625 L20.6814815,2.34538153 C20.6814815,2.07764391 20.590032,1.72066042 20.3156836,1.54216867 C20.0413352,1.36367693 19.7669867,1.18518519 19.4926383,1.18518519 Z" id="Path"></path>
            </g>
        </g>
    </g>
</svg>