<?xml version="1.0" encoding="UTF-8"?>
<svg width="60px" height="60px" viewBox="0 0 60 60" version="1.1" xmlns="http://www.w3.org/2000/svg" xmlns:xlink="http://www.w3.org/1999/xlink">
    <!-- Generator: Sketch 52.6 (67491) - http://www.bohemiancoding.com/sketch -->
    <title>5</title>
    <desc>Created with Sketch.</desc>
    <defs>
        <polygon id="path-1" points="6.31578947e-05 9.47368421e-05 44.9534211 9.47368421e-05 44.9534211 33.7736211 6.31578947e-05 33.7736211"></polygon>
    </defs>
    <g id="5" stroke="none" stroke-width="1" fill="none" fill-rule="evenodd">
        <g id="Group-3" transform="translate(8.000000, 13.000000)">
            <mask id="mask-2" fill="white">
                <use xlink:href="#path-1"></use>
            </mask>
            <g id="Clip-2"></g>
            <path d="M35.4316421,31.2630947 C31.1209579,31.2630947 28.7051684,30.2209895 28.3263789,29.7473053 L28.3263789,26.9052 C30.1735895,27.7104632 32.8263789,28.0422 35.4316421,28.0422 C38.0369053,28.0422 40.6895368,27.6630947 42.5369053,26.9052 L42.5369053,29.7473053 C42.1579579,30.2209895 39.7421684,31.2630947 35.4316421,31.2630947 Z M2.46322105,16.0578316 C2.46322105,12.1262526 5.63690526,8.95256842 9.56848421,8.95256842 C12.7421684,8.95256842 15.4420105,10.9895684 16.3893789,13.9736211 C16.5790105,14.6367789 17.2895368,15.0158842 17.9526947,14.7790421 C18.6158526,14.5894105 18.9946421,13.8788842 18.7578,13.2157263 C17.7632211,9.99467368 15.3000632,7.62625263 12.1737474,6.77362105 C13.7841158,4.16835789 16.6262211,2.46325263 19.8948,2.46325263 C23.1632211,2.46325263 26.0053263,4.21572632 27.6158526,6.77362105 C26.7158526,7.01046316 25.9104316,7.38941053 25.1053263,7.86309474 C24.5369053,8.24204211 24.3474316,9.00009474 24.7262211,9.56851579 C25.1053263,10.1367789 25.8630632,10.3262526 26.4316421,9.94746316 C27.5683263,9.23693684 28.8948,8.85798947 30.2211158,8.85798947 C33.6316421,8.85798947 36.5209579,11.3209895 37.1842737,14.5422 C36.5683263,14.4946737 35.9526947,14.4946737 35.3367474,14.4946737 C30.5526947,14.4946737 25.7684842,15.7264105 25.7684842,18.4262526 L25.7684842,23.1157263 L9.61585263,23.1157263 C5.68427368,23.1630947 2.46322105,19.9422 2.46322105,16.0578316 Z M42.4420105,18.4262526 C41.8737474,18.9473053 39.5053263,19.8473053 35.4316421,19.8473053 C31.3578,19.8473053 28.9893789,18.8999368 28.4211158,18.4262526 C28.9893789,17.9052 31.3578,17.0052 35.4316421,17.0052 C39.5053263,17.0052 41.8737474,17.9525684 42.4420105,18.4262526 Z M42.5369053,24.0158842 C42.2051684,24.4895684 39.7895368,25.5315158 35.4316421,25.5315158 C31.0735895,25.5315158 28.6579579,24.4895684 28.3263789,24.0158842 L28.3263789,21.2209895 C30.1735895,22.0262526 32.8263789,22.3579895 35.4316421,22.3579895 C38.0369053,22.3579895 40.6895368,21.9788842 42.5369053,21.2209895 L42.5369053,24.0158842 Z M39.8367474,14.9209895 C39.2684842,10.1367789 35.1948,6.44204211 30.2684842,6.44204211 C28.3737474,2.65256842 24.4420105,9.47368421e-05 19.9420105,9.47368421e-05 C15.3948,9.47368421e-05 11.5105895,2.65256842 9.61585263,6.44204211 C4.31043158,6.44204211 6.31578947e-05,10.7527263 6.31578947e-05,16.0578316 C6.31578947e-05,21.3632526 4.31043158,25.6737789 9.61585263,25.6737789 L25.8158526,25.6737789 L25.8158526,29.8420421 C25.8158526,32.5422 30.6472737,33.7736211 35.3841158,33.7736211 C40.1209579,33.7736211 44.9526947,32.5422 44.9526947,29.8420421 L44.9526947,18.4736211 C45.0000632,16.5788842 42.7737474,15.4420421 39.8367474,14.9209895 Z" id="Fill-1" fill="#000000" mask="url(#mask-2)"></path>
        </g>
    </g>
</svg>