<?xml version="1.0" encoding="UTF-8"?>
<svg width="60px" height="60px" viewBox="0 0 60 60" version="1.1" xmlns="http://www.w3.org/2000/svg" xmlns:xlink="http://www.w3.org/1999/xlink">
    <!-- Generator: Sketch 52.6 (67491) - http://www.bohemiancoding.com/sketch -->
    <title>6</title>
    <desc>Created with Sketch.</desc>
    <g id="6" stroke="none" stroke-width="1" fill="none" fill-rule="evenodd">
        <g id="Group" transform="translate(8.000000, 8.000000)" fill="#000000" stroke="#000000" stroke-width="0.3">
            <path d="M22.5,29.6202532 C25.4395218,29.6202532 27.9113924,27.1851266 27.9113924,24.2088608 C27.9113924,21.2325949 25.5063291,18.7974684 22.5,18.7974684 C19.5604782,18.7974684 17.0886076,21.2325949 17.0886076,24.2088608 C17.0886076,27.252769 19.5604782,29.6202532 22.5,29.6202532 Z M22.5,20.2179589 C24.7046414,20.2179589 26.5752461,22.0443038 26.5752461,24.2765032 C26.5752461,26.5087025 24.7714487,28.3350475 22.5,28.3350475 C20.2953586,28.3350475 18.4247539,26.5087025 18.4247539,24.2765032 C18.4247539,22.0443038 20.2953586,20.2179589 22.5,20.2179589 Z" id="Shape" fill-rule="nonzero"></path>
            <path d="M18.8740264,8.39518346 L18.1997534,12.2777429 C18.1323261,12.5502033 18.2671807,12.8226636 18.4694626,12.9588937 C18.6717445,13.0951239 18.9414537,13.163239 19.211163,13.0270088 L22.7173828,11.1879017 L26.2236027,13.0270088 C26.4258846,13.163239 26.6955938,13.0951239 26.965303,12.9588937 C27.1675849,12.8226636 27.3024396,12.5502033 27.2350123,12.2777429 L26.5607392,8.39518346 L29.392686,5.60246523 C29.5949679,5.39811999 29.6623952,5.12565968 29.5949679,4.92131444 C29.5275406,4.64885412 29.3252587,4.51262397 29.0555495,4.44450889 L25.1447658,3.89958826 L23.3916559,0.357604163 C23.189374,-0.119201388 22.3802463,-0.119201388 22.1779644,0.357604163 L20.4248545,3.89958826 L16.5140708,4.44450889 C16.2443615,4.51262397 16.0420796,4.64885412 15.9746523,4.92131444 C15.907225,5.19377475 15.9746523,5.46623507 16.1769342,5.60246523 L18.8740264,8.39518346 Z M20.8294183,5.19377475 C21.0317002,5.19377475 21.2339821,4.98942952 21.3688367,4.85319936 L22.6499555,2.12859621 L23.9310743,4.78508428 C23.9985016,4.98942952 24.2007835,5.12565968 24.4704928,5.12565968 L27.3698669,5.60246523 L25.2796204,7.64591759 C25.1447658,7.78214775 25.0773385,8.05460806 25.0773385,8.2589533 L25.5493296,11.1879017 L22.987092,9.82560011 C22.9196647,9.75748503 22.7848101,9.75748503 22.6499555,9.75748503 C22.5151009,9.75748503 22.4476736,9.75748503 22.312819,9.82560011 L19.7505814,11.1879017 L20.2225725,8.2589533 C20.2899998,8.05460806 20.1551452,7.78214775 20.0202906,7.64591759 L17.9300442,5.60246523 L20.8294183,5.19377475 Z" id="Shape" fill-rule="nonzero"></path>
            <path d="M11.0159359,16.9475192 C11.2182179,16.8125173 11.3530725,16.5425136 11.2856452,16.27251 L10.6113721,12.4249573 L13.4433189,9.65741939 C13.6456008,9.45491662 13.7130281,9.18491293 13.6456008,8.98241015 C13.5781735,8.71240646 13.3758916,8.57740461 13.1061824,8.50990368 L9.19539871,7.96989629 L7.44228878,4.39234732 C7.30743417,4.18984454 7.10515226,3.98734177 6.83544304,3.98734177 C6.56573382,3.98734177 6.3634519,4.12234362 6.22859729,4.39234732 L4.47548737,7.90239537 L0.564703679,8.44240276 C0.294994459,8.50990368 0.0927125443,8.64490553 0.0252852393,8.91490923 C-0.0421420656,9.18491293 0.0252852393,9.45491662 0.227567154,9.58991847 L3.05951396,12.4249573 L2.38524091,16.27251 C2.31781361,16.5425136 2.45266822,16.8125173 2.65495013,16.9475192 C2.85723205,17.082521 3.12694127,17.150022 3.39665049,17.0150201 L6.90287034,15.1924952 L10.4090902,17.0150201 C10.5439448,17.150022 10.813654,17.082521 11.0159359,16.9475192 Z M7.17257956,13.7749758 C6.97029765,13.6399739 6.76801573,13.6399739 6.56573382,13.7749758 L4.00349623,15.1249942 L4.47548737,12.2224545 C4.54291467,12.0199517 4.40806006,11.749948 4.27320545,11.6149462 L2.182959,9.58991847 L5.08233311,9.18491293 C5.28461502,9.18491293 5.48689694,8.98241015 5.62175155,8.8474083 L6.90287034,6.21487227 L8.18398914,8.8474083 C8.25141644,9.04991108 8.45369836,9.18491293 8.72340758,9.18491293 L11.6227817,9.58991847 L9.53253524,11.6149462 C9.39768063,11.749948 9.33025332,12.0199517 9.33025332,12.2224545 L9.80224446,15.1249942 L7.17257956,13.7749758 Z" id="Shape" fill-rule="nonzero"></path>
            <path d="M44.9720761,8.90865621 C44.9046618,8.6361959 44.702419,8.49996574 44.432762,8.43185066 L40.5227345,7.88693003 L38.7699636,4.34494594 C38.5677208,3.86814038 37.7587496,3.86814038 37.5565068,4.34494594 L35.8037359,7.88693003 L31.8937084,8.43185066 C31.6240513,8.49996574 31.4218085,8.6361959 31.3543943,8.90865621 C31.28698,9.18111653 31.3543943,9.45357684 31.5566371,9.589807 L34.3880363,12.3825252 L33.7138936,16.2650847 C33.6464793,16.537545 33.7813079,16.8100053 33.9835507,16.9462355 C34.1857935,17.0824657 34.4554505,17.1505807 34.7251076,17.0143506 L38.2306495,15.1752435 L41.7361913,17.0143506 C41.9384341,17.1505807 42.2080912,17.0824657 42.4777482,16.9462355 C42.679991,16.8100053 42.8148196,16.537545 42.7474053,16.2650847 L42.0732626,12.3825252 L44.9046618,9.589807 C44.9720761,9.38546176 45.0394904,9.11300145 44.9720761,8.90865621 Z M40.7249773,11.6332594 C40.5901488,11.7694895 40.5227345,12.0419498 40.5227345,12.2462951 L40.9946344,15.1752435 L38.4328923,13.8129419 C38.365478,13.7448268 38.2306495,13.7448268 38.0958209,13.7448268 C37.9609924,13.7448268 37.8935781,13.7448268 37.7587496,13.8129419 L35.1970075,15.1752435 L35.6689073,12.2462951 C35.7363216,12.0419498 35.6014931,11.7694895 35.4666645,11.6332594 L33.3768223,9.589807 L36.2756357,9.18111653 C36.4778785,9.18111653 36.6801213,8.97677129 36.8149499,8.84054113 L38.0958209,6.18405306 L39.376692,8.84054113 C39.4441062,9.04488637 39.646349,9.18111653 39.9160061,9.18111653 L42.8148196,9.589807 L40.7249773,11.6332594 Z" id="Shape" fill-rule="nonzero"></path>
            <path d="M35.3538845,29.0077854 C35.1503652,29.0077854 34.9468458,29.0077854 34.7433265,29.0077854 C34.8790061,28.2592136 34.9468458,27.4425899 34.9468458,26.6259662 C34.9468458,19.8207685 29.3839836,14.2405063 22.6000052,14.2405063 C15.8160268,14.2405063 10.2531646,19.7527165 10.2531646,26.6259662 C10.2531646,33.4311639 15.748187,39.011426 22.6000052,39.011426 C24.2959998,39.011426 25.9241546,38.6711661 27.4844696,37.9906464 C27.9593481,41.937661 31.2834975,45 35.3538845,45 C39.7634705,45 43.2911392,41.3932452 43.2911392,37.0379187 C43.2911392,32.6145402 39.7634705,29.0077854 35.3538845,29.0077854 Z M22.6000052,15.6695978 C28.637746,15.6695978 33.5900502,20.5693402 33.5900502,26.6940181 C33.5900502,27.5786939 33.4543706,28.4633696 33.2508512,29.2799933 C31.758376,29.6883051 30.4015803,30.5729808 29.3839836,31.7298645 C28.0950277,30.6410328 26.5347127,30.096617 24.8387181,30.096617 L20.3612923,30.096617 C17.7833806,30.096617 15.4089881,31.5257085 14.187872,33.7714238 C12.5597172,31.7979164 11.6099602,29.3480453 11.6099602,26.7620701 C11.6099602,20.6373922 16.5622644,15.6695978 22.6000052,15.6695978 Z M15.2054688,34.7922034 C16.1552257,32.7506441 18.1225795,31.4576565 20.3612923,31.4576565 L24.8387181,31.4576565 C26.2633535,31.4576565 27.5523094,31.9340204 28.5699062,32.8186961 C27.8915083,33.9075277 27.4844696,35.2005153 27.4166298,36.5615548 C23.4140826,38.5350622 18.597458,37.9225944 15.2054688,34.7922034 Z M35.3538845,43.6389605 C31.6905362,43.6389605 28.7734255,40.6446735 28.7734255,37.0379187 C28.7734255,33.4311639 31.758376,30.4368769 35.3538845,30.4368769 C38.9493931,30.4368769 41.9343436,33.4311639 41.9343436,37.0379187 C41.9343436,40.6446735 39.0172329,43.6389605 35.3538845,43.6389605 Z" id="Shape" fill-rule="nonzero"></path>
            <path d="M38.7571286,34.3181142 L33.8322438,38.7225538 L31.9432469,36.4515146 C31.6733902,36.1762372 31.2686052,36.1074178 30.9987485,36.3826953 C30.7288918,36.6579728 30.6614276,37.070889 30.9312843,37.3461664 L33.2250663,40.1677605 C33.3599946,40.3053992 33.494923,40.3742186 33.6973155,40.443038 C33.899708,40.443038 34.0346364,40.3742186 34.1695647,40.3053992 L39.6341629,35.4192241 C39.9040196,35.1439467 39.9714838,34.7310305 39.7016271,34.455753 C39.4317704,34.1116561 39.0269853,34.1116561 38.7571286,34.3181142 Z" id="Path"></path>
        </g>
    </g>
</svg>