<?xml version="1.0" encoding="UTF-8"?>
<svg width="60px" height="60px" viewBox="0 0 60 60" version="1.1" xmlns="http://www.w3.org/2000/svg" xmlns:xlink="http://www.w3.org/1999/xlink">
    <!-- Generator: Sketch 52.6 (67491) - http://www.bohemiancoding.com/sketch -->
    <title>2</title>
    <desc>Created with Sketch.</desc>
    <g id="2" stroke="none" stroke-width="1" fill="none" fill-rule="evenodd">
        <g id="mobile2" transform="translate(17.000000, 8.000000)" fill="#000000">
            <path d="M16.2762097,39.0120968 L9.67137097,39.0120968 C9.01995968,39.0120968 8.49193548,39.540121 8.49193548,40.1915323 C8.49193548,40.8429435 9.01995968,41.3709677 9.67137097,41.3709677 L16.2762097,41.3709677 C16.927621,41.3709677 17.4556452,40.8429435 17.4556452,40.1915323 C17.4556452,39.540121 16.927621,39.0120968 16.2762097,39.0120968 Z" id="Path"></path>
            <path d="M21.4185484,0 L20.0504032,0 L5.89717742,0 L4.52903226,0 C2.03171371,0 0,1.97392137 0,4.40020161 L0,40.5997984 C0,43.0260786 2.03171371,45 4.52903226,45 L21.4185484,45 C23.9158669,45 25.9475806,43.0260786 25.9475806,40.5997984 L25.9475806,4.40020161 C25.9475806,1.97392137 23.9158669,0 21.4185484,0 Z M18.7793347,2.37683468 C18.7751613,2.39271169 18.7704435,2.40840726 18.765998,2.42410282 C18.758377,2.45095766 18.7503931,2.47772177 18.7419556,2.50421371 C18.7366028,2.52072581 18.7311593,2.5372379 18.7255343,2.55365927 C18.7167339,2.5794254 18.7075706,2.60501008 18.6979536,2.63050403 C18.6919657,2.6465625 18.6859778,2.66262097 18.6797177,2.67849798 C18.6691935,2.70498992 18.658125,2.73120968 18.6467843,2.75742944 C18.6407056,2.77149194 18.6348085,2.78573589 18.6285484,2.79970766 C18.6129435,2.83409274 18.5966129,2.86811492 18.5796472,2.90177419 C18.5771069,2.90703629 18.5746573,2.91238911 18.5720262,2.91765121 C18.5523387,2.95602823 18.5318347,2.99386089 18.5104234,3.03123992 C18.5029839,3.04430444 18.4950907,3.05700605 18.4874698,3.06979839 C18.4728629,3.09447581 18.4581653,3.1190625 18.4428327,3.14328629 C18.4334879,3.15798387 18.423871,3.17240927 18.4143448,3.18683468 C18.3998286,3.20897177 18.3850403,3.23083669 18.3698891,3.25252016 C18.3596371,3.26721774 18.3491129,3.2818246 18.338498,3.29643145 C18.3229839,3.31766129 18.3071069,3.33870968 18.2910484,3.35957661 C18.2803427,3.37345766 18.2696371,3.38752016 18.2586593,3.40121976 C18.2409677,3.42344758 18.2226411,3.44522177 18.2041331,3.46690524 C18.194244,3.47851815 18.184627,3.4903125 18.1745565,3.50174395 C18.14625,3.53404234 18.1173085,3.56579637 18.0875504,3.5968246 C18.081381,3.60326613 18.0748488,3.60943548 18.0685887,3.61578629 C18.0442742,3.64064516 18.0196875,3.66532258 17.9944657,3.68945565 C17.9824899,3.7008871 17.9701512,3.71195565 17.957994,3.72320565 C17.9378528,3.74180444 17.917621,3.7603125 17.8968448,3.77836694 C17.8832359,3.79025202 17.8692641,3.80204637 17.8553831,3.81365927 C17.8353327,3.83053427 17.8151008,3.84722782 17.7945968,3.86355847 C17.7801714,3.87508065 17.765746,3.8865121 17.7510484,3.8977621 C17.7299093,3.91400202 17.7083165,3.92987903 17.6866331,3.94566532 C17.6723891,3.95600806 17.6582359,3.96653226 17.643629,3.97669355 C17.6189516,3.99402218 17.5937298,4.01071573 17.5684173,4.02740927 C17.5565323,4.03512097 17.5450101,4.04319556 17.5330343,4.05081653 C17.4961996,4.07422379 17.4589113,4.09699597 17.4208972,4.11886089 C17.4096472,4.12539315 17.3980343,4.13147177 17.3866028,4.13782258 C17.3590222,4.15324597 17.3314415,4.16857863 17.3032258,4.18318548 C17.287621,4.19135081 17.271744,4.1990625 17.2559577,4.20695565 C17.231371,4.21920363 17.2067843,4.23136089 17.1819254,4.24297379 C17.164869,4.25086694 17.1478125,4.2584879 17.130756,4.26610887 C17.1060786,4.27708669 17.081129,4.28779234 17.0561794,4.29813508 C17.0390323,4.30521169 17.0217944,4.31228831 17.0045565,4.31909274 C16.9780645,4.32943548 16.9513004,4.3393246 16.9245363,4.34903226 C16.9083871,4.35483871 16.8924194,4.36082661 16.8760887,4.36645161 C16.8429738,4.37779234 16.8094052,4.38840726 16.775746,4.39865927 C16.7655847,4.40174395 16.7555141,4.40528226 16.7452621,4.40818548 C16.7018044,4.42097782 16.6578024,4.43277218 16.6135282,4.44375 C16.5991935,4.44728831 16.5845867,4.45028226 16.5700706,4.45363911 C16.5393145,4.46080645 16.5084677,4.46770161 16.4773488,4.47396169 C16.459748,4.4775 16.441875,4.4806754 16.4240927,4.48385081 C16.3956048,4.48902218 16.3669355,4.4940121 16.3381754,4.49845766 C16.3194859,4.50136089 16.3007964,4.50399194 16.2820161,4.50653226 C16.2531653,4.51043347 16.2240423,4.51397177 16.1948286,4.51705645 C16.1765927,4.51905242 16.1583569,4.52104839 16.1400302,4.52277218 C16.1081855,4.52558468 16.07625,4.5277621 16.0440423,4.52966734 C16.028256,4.5305746 16.0125605,4.53184476 15.9967742,4.53257056 C15.9491431,4.53465726 15.9013306,4.53601815 15.8531552,4.53601815 C15.8527923,4.53601815 15.8523387,4.53601815 15.8519758,4.53601815 L10.0959677,4.53601815 C10.0473387,4.53601815 9.99907258,4.53465726 9.9509879,4.53247984 C9.93574597,4.53184476 9.92059476,4.5305746 9.90544355,4.52966734 C9.87260081,4.5277621 9.83984879,4.52549395 9.80727823,4.52259073 C9.78967742,4.52095766 9.77216734,4.51905242 9.75456653,4.51714718 C9.72444556,4.51388105 9.69441532,4.51034274 9.66465726,4.50626008 C9.64678427,4.50381048 9.62891129,4.50127016 9.61121976,4.49863911 C9.58109879,4.4940121 9.55125,4.48884073 9.52149194,4.48339718 C9.50497984,4.48040323 9.48837702,4.4775 9.47186492,4.47414315 C9.43865927,4.46752016 9.40563508,4.46017137 9.37279234,4.45245968 C9.3603629,4.44955645 9.34784274,4.44701613 9.33550403,4.44393145 C9.29032258,4.43277218 9.24559476,4.4208871 9.20132056,4.40782258 C9.19487903,4.40591734 9.18861895,4.40373992 9.18217742,4.40183468 C9.14452621,4.39049395 9.10714718,4.37860887 9.07013105,4.36590726 C9.05597782,4.36100806 9.04191532,4.35574597 9.02785282,4.35075605 C8.99872984,4.34032258 8.96978831,4.32961694 8.94111895,4.31827621 C8.92560484,4.31219758 8.91018145,4.30584677 8.89475806,4.29949597 C8.86772177,4.28833669 8.84077621,4.27681452 8.81410282,4.26492944 C8.79877016,4.258125 8.7834375,4.25122984 8.76819556,4.24415323 C8.7408871,4.23145161 8.71394153,4.21829637 8.68717742,4.20477823 C8.67356855,4.19797379 8.65986895,4.19135081 8.64635081,4.18427419 C8.61450605,4.16767137 8.58311492,4.15043347 8.55199597,4.13292339 C8.54410282,4.12847782 8.53602823,4.12430444 8.52822581,4.11976815 C8.48921371,4.09726815 8.45083669,4.07395161 8.41309476,4.04981855 C8.40447581,4.04428427 8.39603831,4.03847782 8.38751008,4.0327621 C8.35875,4.01398185 8.3302621,3.99492944 8.30222782,3.97533266 C8.28979839,3.96662298 8.2775504,3.9575504 8.26521169,3.94865927 C8.24135081,3.93142137 8.21767137,3.91391129 8.19435484,3.89594758 C8.18138105,3.88596774 8.16858871,3.87589718 8.1558871,3.86573589 C8.1333871,3.8478629 8.11125,3.82962702 8.08938508,3.81111895 C8.0771371,3.80077621 8.06479839,3.79043347 8.05282258,3.77990927 C8.02995968,3.76004032 8.00764113,3.73971774 7.98541331,3.71912298 C7.97516129,3.7096875 7.96472782,3.70025202 7.95465726,3.69072581 C7.92535282,3.66278226 7.89659274,3.63429435 7.86855847,3.6052621 C7.8661996,3.6028125 7.86375,3.60045363 7.86139113,3.59800403 C7.83081653,3.56615927 7.80114919,3.53358871 7.77211694,3.50047379 C7.76395161,3.49103831 7.75605847,3.48142137 7.74798387,3.47198589 C7.72757056,3.448125 7.70742944,3.42408266 7.68783266,3.39967742 C7.67803427,3.38733871 7.66850806,3.37490927 7.65889113,3.36238911 C7.6415625,3.33997984 7.62450605,3.31738911 7.60790323,3.29452621 C7.59819556,3.28118952 7.58866935,3.26785282 7.57923387,3.25433468 C7.56308468,3.23129032 7.54729839,3.20788306 7.531875,3.18438508 C7.52316532,3.17113911 7.51436492,3.15789315 7.50583669,3.14446573 C7.4893246,3.11851815 7.47353831,3.09220766 7.45793347,3.06571573 C7.45131048,3.05446573 7.44441532,3.04339718 7.43797379,3.03214718 C7.41629032,2.99422379 7.39533266,2.95575605 7.37546371,2.91683468 C7.3740121,2.91402218 7.37283266,2.91120968 7.37147177,2.90839718 C7.35314516,2.87228831 7.33563508,2.83563508 7.31894153,2.79870968 C7.31313508,2.78582661 7.30778226,2.7727621 7.30215726,2.75978831 C7.2903629,2.73257056 7.27875,2.70508065 7.26777218,2.6775 C7.26169355,2.66216734 7.25597782,2.64674395 7.25017137,2.63132056 C7.24046371,2.60537298 7.23111895,2.57924395 7.22204637,2.55293347 C7.21660282,2.536875 7.21115927,2.52072581 7.2059879,2.50448589 C7.19736895,2.47763105 7.18938508,2.45059476 7.18158266,2.42346774 C7.1771371,2.40795363 7.17251008,2.39243952 7.16833669,2.37674395 C7.16670363,2.37075605 7.16543347,2.36458669 7.16389113,2.35859879 L18.783871,2.35859879 C18.7822379,2.36485887 18.7809677,2.3709375 18.7793347,2.37683468 Z M23.5887097,40.5997984 C23.5887097,41.7253427 22.6152218,42.641129 21.4185484,42.641129 L4.52903226,42.641129 C3.33235887,42.641129 2.35887097,41.7253427 2.35887097,40.5997984 L2.35887097,4.40020161 C2.35887097,3.27456653 3.33235887,2.35887097 4.52903226,2.35887097 L4.76328629,2.35887097 C4.76600806,2.379375 4.77,2.39951613 4.77299395,2.41992944 C4.77834677,2.45640121 4.78415323,2.49269153 4.79032258,2.5288004 C4.79830645,2.57579637 4.8069254,2.62252016 4.81617944,2.6690625 C4.82325605,2.70471774 4.83060484,2.74019153 4.83840726,2.7755746 C4.84875,2.82238911 4.86009073,2.86875 4.87170363,2.91511089 C4.88032258,2.94949597 4.88885081,2.98388105 4.89828629,3.01799395 C4.91116935,3.06498992 4.92514113,3.11144153 4.93929435,3.15789315 C4.94927419,3.19055444 4.95889113,3.22330645 4.96950605,3.25569556 C4.98529234,3.30396169 5.00243952,3.35168347 5.01967742,3.39931452 C5.03038306,3.42898185 5.04054435,3.45892137 5.05179435,3.48831653 C5.07193548,3.5409375 5.09352823,3.59265121 5.11539315,3.64445565 C5.12537298,3.66822581 5.13462702,3.69235887 5.14506048,3.71594758 C5.21101815,3.86628024 5.28405242,4.01289315 5.3638004,4.15560484 C5.37568548,4.1769254 5.38856855,4.19761089 5.40081653,4.21875 C5.42939516,4.26819556 5.45806452,4.3175504 5.48827621,4.36608871 C5.5044254,4.39212702 5.52157258,4.41743952 5.5381754,4.44320565 C5.56584677,4.4859375 5.59351815,4.5284879 5.62236895,4.57040323 C5.64114919,4.59762097 5.66065524,4.62429435 5.67997984,4.65114919 C5.70819556,4.69052419 5.73659274,4.72971774 5.76589718,4.76827621 C5.78667339,4.79549395 5.80799395,4.82234879 5.82931452,4.84920363 C5.85861895,4.88631048 5.88828629,4.92314516 5.91858871,4.95943548 C5.94099798,4.9861996 5.96377016,5.01260081 5.98672379,5.03891129 C6.01738911,5.07420363 6.04859879,5.10913306 6.0802621,5.14360887 C6.10403226,5.16946573 6.12789315,5.19514113 6.15220766,5.22054435 C6.18459677,5.25447581 6.21762097,5.2878629 6.25091734,5.3208871 C6.27559476,5.34547379 6.30045363,5.36996976 6.3256754,5.39410282 C6.36006048,5.42694556 6.3952621,5.45915323 6.43055444,5.49108871 C6.45586694,5.51404234 6.48108871,5.53708669 6.50694556,5.55958669 C6.54396169,5.59179435 6.58179435,5.62309476 6.61971774,5.65430444 C6.64503024,5.67517137 6.67007056,5.69640121 6.69583669,5.71681452 C6.73684476,5.74929435 6.77876008,5.78068548 6.8206754,5.81207661 C6.84453629,5.82985887 6.86785282,5.84818548 6.89198589,5.86560484 C6.94270161,5.90216734 6.99441532,5.93736895 7.04640121,5.97220766 C7.06273185,5.98318548 7.07860887,5.99470766 7.09512097,6.00550403 C7.16407258,6.05068548 7.23420363,6.0943246 7.30533266,6.13633065 C7.32193548,6.14612903 7.33908266,6.15511089 7.35577621,6.16472782 C7.41066532,6.19639113 7.46573589,6.22769153 7.52189516,6.2574496 C7.54865927,6.27160282 7.57605847,6.28484879 7.60309476,6.29863911 C7.65,6.3225 7.69681452,6.34636089 7.74444556,6.36895161 C7.77520161,6.38355847 7.80659274,6.39716734 7.83771169,6.41122984 C7.88262097,6.43146169 7.92753024,6.45160282 7.9730746,6.47065524 C8.00609879,6.48444556 8.03948589,6.49741935 8.07287298,6.51066532 C8.11760081,6.52826613 8.16232863,6.54577621 8.20751008,6.56219758 C8.24198589,6.57480847 8.27673387,6.58678427 8.31148185,6.59866935 C8.35657258,6.61409274 8.40175403,6.6290625 8.44738911,6.64330645 C8.48295363,6.65446573 8.5186996,6.66517137 8.55462702,6.67560484 C8.60044355,6.68894153 8.64653226,6.70164315 8.69280242,6.71370968 C8.72900202,6.72323589 8.76529234,6.73258065 8.80176411,6.74129032 C8.84876008,6.75263105 8.89602823,6.76297379 8.94347782,6.77313508 C8.9799496,6.78084677 9.01642137,6.78864919 9.05325605,6.79572581 C9.10188508,6.80507056 9.15096774,6.81323589 9.20014113,6.82121976 C9.23625,6.82711694 9.27217742,6.83337702 9.30855847,6.83854839 C9.36018145,6.84589718 9.41225806,6.85179435 9.46424395,6.85778226 C9.49871976,6.86168347 9.53301411,6.86621976 9.56767137,6.86957661 C9.62546371,6.87511089 9.68370968,6.87873992 9.74195565,6.88245968 C9.77144153,6.88436492 9.80065524,6.88708669 9.83032258,6.88844758 C9.91805444,6.89262097 10.0061492,6.89497984 10.0949698,6.89497984 C10.0953327,6.89497984 10.0956048,6.89497984 10.0959677,6.89497984 L10.0960585,6.89497984 L15.8516129,6.89497984 L15.8517944,6.89497984 C15.9409778,6.89497984 16.0296169,6.89262097 16.1177117,6.88844758 C16.1461996,6.88708669 16.1744153,6.88445565 16.2028125,6.88273185 C16.2622379,6.87892137 16.3218448,6.87520161 16.3807258,6.86948589 C16.4142036,6.86631048 16.4473185,6.86195565 16.4806149,6.85814516 C16.5340524,6.85215726 16.5873992,6.8459879 16.6402923,6.83845766 C16.6754032,6.83346774 16.7101512,6.82738911 16.7448992,6.82176411 C16.7955242,6.81350806 16.845877,6.80507056 16.8959577,6.79554435 C16.9314315,6.78873992 16.9664516,6.78120968 17.0016532,6.77377016 C17.0506452,6.76333669 17.0993649,6.75263105 17.1478125,6.74092742 C17.1829234,6.73248992 17.2177621,6.72359879 17.2525101,6.71443548 C17.3004133,6.70191532 17.3481351,6.68876008 17.395494,6.67496976 C17.4297883,6.66498992 17.4639919,6.6547379 17.4980141,6.64403226 C17.5454637,6.62924395 17.5924597,6.61363911 17.6393649,6.59758065 C17.6722984,6.58623992 17.7054133,6.57489919 17.7380746,6.56301411 C17.7854335,6.54577621 17.8323387,6.52754032 17.8790625,6.50903226 C17.9103629,6.49660282 17.9416633,6.48444556 17.9726915,6.47147177 C18.0208669,6.45133065 18.068498,6.43001008 18.1158569,6.40859879 C18.1443448,6.39571573 18.1731956,6.38319556 18.2014113,6.36985887 C18.2526714,6.34554435 18.3032056,6.31995968 18.3536492,6.29419355 C18.3771472,6.28221774 18.4009173,6.27078629 18.4241431,6.25844758 C18.4868347,6.22515121 18.548619,6.19040323 18.6098589,6.15474798 C18.6200202,6.14885081 18.6306351,6.14340726 18.6407964,6.13732863 C18.7131048,6.0946875 18.7841431,6.05041331 18.8541835,6.00459677 C18.8643448,5.99788306 18.8741431,5.99071573 18.8843044,5.98391129 C18.9428226,5.94508065 19.0005242,5.90543347 19.0573185,5.86451613 C19.0780948,5.84945565 19.0982359,5.83366935 19.1189214,5.81833669 C19.1641935,5.78458669 19.209375,5.75074597 19.2535585,5.71563508 C19.2770565,5.69694556 19.2999194,5.67762097 19.3230544,5.65856855 C19.363246,5.62554435 19.403256,5.59242944 19.4423589,5.55831653 C19.4664919,5.53735887 19.4899899,5.51576613 19.5137601,5.49426411 C19.5507762,5.46078629 19.5876109,5.42703629 19.6238105,5.39246976 C19.6475806,5.36978831 19.6708972,5.34665323 19.6942137,5.32351815 C19.7290524,5.28895161 19.7635282,5.25402218 19.797369,5.21854839 C19.8203226,5.19450605 19.843004,5.17019153 19.865504,5.14569556 C19.8985282,5.10976815 19.9310081,5.07347782 19.9628528,5.03673387 C19.9847177,5.01160282 20.0063105,4.98647177 20.0277218,4.96106855 C20.0592944,4.92341734 20.0899597,4.8853125 20.1203528,4.84675403 C20.1406754,4.82107863 20.160998,4.79549395 20.1807762,4.76945565 C20.2111694,4.72962702 20.2404738,4.68907258 20.2696875,4.64833669 C20.2880141,4.62275202 20.3066129,4.59734879 20.3244859,4.57140121 C20.3544254,4.52794355 20.3830948,4.48385081 20.4117641,4.43957661 C20.427369,4.4152621 20.4436089,4.39140121 20.4588508,4.36681452 C20.4903327,4.31637097 20.5202722,4.26502016 20.5499395,4.2134879 C20.5609173,4.19434476 20.572621,4.17556452 20.5834173,4.15623992 C20.6633468,4.01316532 20.7365625,3.86618952 20.8027016,3.71549395 C20.8125907,3.69290323 20.8213911,3.6699496 20.8310081,3.64726815 C20.8533266,3.594375 20.875373,3.54157258 20.8959677,3.4878629 C20.9069456,3.45910282 20.9168347,3.42979839 20.9274496,3.40076613 C20.944869,3.3525 20.9622883,3.30414315 20.9783468,3.25524194 C20.9887802,3.22321573 20.9983972,3.19091734 21.0081956,3.15861895 C21.0225302,3.11189516 21.0365927,3.06508065 21.0495665,3.0178125 C21.0589113,2.98379032 21.0673488,2.94967742 21.0759677,2.91538306 C21.0876714,2.86893145 21.0990121,2.82238911 21.1093548,2.77548387 C21.1171573,2.74028226 21.1244153,2.70489919 21.1314919,2.6694254 C21.1408367,2.62270161 21.1494556,2.57579637 21.1574395,2.52870968 C21.1635181,2.49260081 21.1694153,2.45649194 21.1746774,2.42020161 C21.1776714,2.39969758 21.1816633,2.37955645 21.1843851,2.35896169 L21.4186391,2.35896169 C22.6152218,2.35887097 23.5887097,3.27456653 23.5887097,4.40020161 L23.5887097,40.5997984 Z" id="Shape" fill-rule="nonzero"></path>
            <path d="M18.4173387,19.5967742 C19.06875,19.5967742 19.5967742,19.06875 19.5967742,18.4173387 C19.5967742,17.7659274 19.06875,17.2379032 18.4173387,17.2379032 L17.5414718,17.2379032 L17.7662903,15.8894456 C17.8734375,15.2469254 17.4393145,14.639244 16.7967036,14.5321875 C16.155,14.425131 15.5465927,14.8591633 15.4394456,15.5016835 L15.1500302,17.2379032 L12.0979234,17.2379032 L12.3226512,15.8894456 C12.4297077,15.2469254 11.9956754,14.639244 11.3531552,14.5321875 C10.7105444,14.425131 10.1029536,14.8591633 9.99589718,15.5016835 L9.70648185,17.2379032 L7.53024194,17.2379032 C6.87883065,17.2379032 6.35080645,17.7659274 6.35080645,18.4173387 C6.35080645,19.06875 6.87883065,19.5967742 7.53024194,19.5967742 L9.31336694,19.5967742 L8.79922379,22.6814516 L7.53024194,22.6814516 C6.87883065,22.6814516 6.35080645,23.2094758 6.35080645,23.8608871 C6.35080645,24.5122984 6.87883065,25.0403226 7.53024194,25.0403226 L8.40610887,25.0403226 L8.18138105,26.3887802 C8.0743246,27.0313004 8.50835685,27.6388911 9.15087702,27.7460383 C9.2165625,27.7569254 9.28179435,27.7622782 9.34620968,27.7622782 C9.91233871,27.7622782 10.4120565,27.3534677 10.5082258,26.7765423 L10.7975504,25.0403226 L13.849748,25.0403226 L13.6249294,26.3887802 C13.5177823,27.0313004 13.9519052,27.6388911 14.5945161,27.7460383 C14.6601109,27.7569254 14.7253427,27.7622782 14.7897581,27.7622782 C15.3558871,27.7622782 15.8556048,27.3534677 15.9517742,26.7765423 L16.2410988,25.0403226 L18.4173387,25.0403226 C19.06875,25.0403226 19.5967742,24.5122984 19.5967742,23.8608871 C19.5967742,23.2094758 19.06875,22.6814516 18.4173387,22.6814516 L16.6342137,22.6814516 L17.1483569,19.5967742 L18.4173387,19.5967742 Z M14.2427722,22.6814516 L11.1906653,22.6814516 L11.7048085,19.5967742 L14.757006,19.5967742 L14.2427722,22.6814516 Z" id="Shape" fill-rule="nonzero"></path>
        </g>
    </g>
</svg>