<?xml version="1.0" encoding="UTF-8"?>
<svg width="60px" height="60px" viewBox="0 0 60 60" version="1.1" xmlns="http://www.w3.org/2000/svg" xmlns:xlink="http://www.w3.org/1999/xlink">
    <!-- Generator: Sketch 52.6 (67491) - http://www.bohemiancoding.com/sketch -->
    <title>8</title>
    <desc>Created with Sketch.</desc>
    <g id="8" stroke="none" stroke-width="1" fill="none" fill-rule="evenodd">
        <g id="Group" transform="translate(10.000000, 12.000000)" fill="#000000" stroke="#000000" stroke-width="0.3">
            <path d="M21.42,17.4866667 L21.42,21.1866667 L22.7533333,21.1866667 L22.7533333,17.4866667 C22.7527423,15.6979133 21.8003766,14.0446066 20.2533333,13.1466667 C21.6938,11.2584688 21.4546829,8.58299232 19.7022099,6.98015915 C17.949737,5.37732597 15.2635964,5.37732597 13.5111234,6.98015915 C11.7586505,8.58299232 11.5195333,11.2584688 12.96,13.1466667 C11.4113927,14.0439177 10.4566697,15.6969089 10.4533333,17.4866667 L10.4533333,21.1866667 L11.7866667,21.1866667 L11.7866667,17.4866667 C11.7854964,16.0329051 12.6357583,14.7131734 13.96,14.1133333 L14.14,14.22 C14.24,14.2866667 14.3466667,14.3466667 14.4466667,14.4 C14.5395961,14.4498854 14.6353086,14.4944028 14.7333333,14.5333333 C14.8897509,14.606338 15.0499824,14.6708757 15.2133333,14.7266667 C16.1085024,15.0289541 17.0781642,15.0289541 17.9733333,14.7266667 C18.1392936,14.6720615 18.3018107,14.6074999 18.46,14.5333333 C18.5558409,14.4943583 18.6493323,14.4498386 18.74,14.4 C18.8458902,14.3464801 18.9483141,14.2863617 19.0466667,14.22 L19.2333333,14.1133333 C20.5639395,14.7078632 21.4205096,16.0292792 21.42,17.4866667 Z M18.7133333,12.82 C17.8099357,13.5585702 16.5861005,13.7709714 15.4866667,13.38 C15.1266268,13.254519 14.7923285,13.0647821 14.5,12.82 C13.4650598,11.9374354 13.0899574,10.5033091 13.5602458,9.22704489 C14.0305343,7.95078068 15.2465117,7.10294875 16.6066667,7.10294875 C17.9668216,7.10294875 19.182799,7.95078068 19.6530875,9.22704489 C20.123376,10.5033091 19.7482735,11.9374354 18.7133333,12.82 Z" id="Shape" fill-rule="nonzero"></path>
            <path d="M6.53333333,21.7466667 C4.88068543,19.5431741 3.99132018,16.8610358 4,14.1066667 C4.0082332,9.94980938 6.03766359,6.05666626 9.44073116,3.66947934 C12.8437987,1.28229242 17.1952734,0.699352478 21.1066667,2.10666667 L21.56,0.853333333 C15.7071868,-1.24155179 9.17288526,0.739747278 5.46910169,5.73233707 C1.76531812,10.7249269 1.76432929,17.5530043 5.46666667,22.5466667 L6.53333333,21.7466667 Z" id="Path"></path>
            <path d="M30.3266667,25.7933333 L29.5133333,26.6066667 L26.8466667,23.94 C29.4147407,21.3006851 30.8501006,17.762523 30.8466667,14.08 C30.845827,13.3388652 30.7878777,12.5988969 30.6733333,11.8666667 L29.34,12.08 C29.4467802,12.7413094 29.5002855,13.4101254 29.5,14.08 C29.519109,20.1968067 25.2055813,25.4713793 19.2066667,26.6666667 L19.46,28 C21.8335624,27.5455762 24.048216,26.4818992 25.8866667,24.9133333 L28.5533333,27.58 L27.74,28.3933333 C27.0213306,29.1162183 27.0213306,30.2837817 27.74,31.0066667 L32.56,35.8333333 L33.5066667,34.8866667 L28.6666667,30.04 C28.4882218,29.8382396 28.4882218,29.5350937 28.6666667,29.3333333 L31.2666667,26.7333333 C31.4695017,26.5316287 31.797165,26.5316287 32,26.7333333 L37.5266667,32.2666667 L38.4733333,31.3333333 L32.94,25.8 C32.2189497,25.0794832 31.0513836,25.0765047 30.3266667,25.7933333 Z" id="Path"></path>
            <path d="M39.3333333,1.33333333 L23.3333333,1.33333333 C22.9651435,1.33333333 22.6666667,1.63181017 22.6666667,2 L22.6666667,10 C22.6666667,10.3681898 22.9651435,10.6666667 23.3333333,10.6666667 L39.3333333,10.6666667 C39.7015232,10.6666667 40,10.3681898 40,10 L40,2 C40,1.63181017 39.7015232,1.33333333 39.3333333,1.33333333 Z M38.6666667,9.33333333 L24,9.33333333 L24,2.66666667 L38.6666667,2.66666667 L38.6666667,9.33333333 Z" id="Shape" fill-rule="nonzero"></path>
            <rect id="Rectangle" x="25.3333333" y="4" width="12" height="1.33333333"></rect>
            <rect id="Rectangle" x="25.3333333" y="6.66666667" width="6.66666667" height="1.33333333"></rect>
            <rect id="Rectangle" x="33.3333333" y="6.66666667" width="4" height="1.33333333"></rect>
            <path d="M16.6666667,23.3333333 L0.666666667,23.3333333 C0.298476833,23.3333333 1.21147536e-12,23.6318102 1.21147536e-12,24 L1.21147536e-12,32 C1.21147536e-12,32.3681898 0.298476833,32.6666667 0.666666667,32.6666667 L16.6666667,32.6666667 C17.0348565,32.6666667 17.3333333,32.3681898 17.3333333,32 L17.3333333,24 C17.3333333,23.6318102 17.0348565,23.3333333 16.6666667,23.3333333 Z M16,31.3333333 L1.33333333,31.3333333 L1.33333333,24.6666667 L16,24.6666667 L16,31.3333333 Z" id="Shape" fill-rule="nonzero"></path>
            <rect id="Rectangle" x="2.66666667" y="26" width="12" height="1.33333333"></rect>
            <rect id="Rectangle" x="2.66666667" y="28.6666667" width="6.66666667" height="1.33333333"></rect>
            <rect id="Rectangle" x="10.6666667" y="28.6666667" width="4" height="1.33333333"></rect>
        </g>
    </g>
</svg>