<?xml version="1.0" encoding="UTF-8"?>
<svg width="60px" height="60px" viewBox="0 0 60 60" version="1.1" xmlns="http://www.w3.org/2000/svg" xmlns:xlink="http://www.w3.org/1999/xlink">
    <!-- Generator: Sketch 52.6 (67491) - http://www.bohemiancoding.com/sketch -->
    <title>1</title>
    <desc>Created with Sketch.</desc>
    <g id="1" stroke="none" stroke-width="1" fill="none" fill-rule="evenodd">
        <g id="home-icons" transform="translate(8.000000, 8.000000)" fill="#000000">
            <path d="M38.1774194,0 L5.37096774,0 C2.32258065,0 0,2.32258065 0,5.37096774 L0,38.3225806 C0,41.2258065 2.32258065,43.6935484 5.37096774,43.6935484 L38.3225806,43.6935484 C41.2258065,43.6935484 43.6935484,41.3709677 43.6935484,38.3225806 L43.6935484,5.37096774 C43.5483871,2.32258065 41.2258065,0 38.1774194,0 Z M5.37096774,2.90322581 L38.3225806,2.90322581 C39.6290323,2.90322581 40.6451613,3.91935484 40.6451613,5.37096774 L40.6451613,10.4516129 L2.90322581,10.4516129 L2.90322581,5.37096774 C2.90322581,3.91935484 3.91935484,2.90322581 5.37096774,2.90322581 Z M38.1774194,40.6451613 L5.37096774,40.6451613 C3.91935484,40.6451613 2.90322581,39.6290323 2.90322581,38.1774194 L2.90322581,13.3548387 L40.6451613,13.3548387 L40.6451613,38.3225806 C40.6451613,39.6290323 39.6290323,40.6451613 38.1774194,40.6451613 Z" id="Shape" fill-rule="nonzero"></path>
            <path d="M5.80645161,8.70967742 C6.67741935,8.70967742 7.25806452,8.12903226 7.25806452,7.25806452 C7.25806452,6.38709677 6.67741935,5.80645161 5.80645161,5.80645161 C4.93548387,5.80645161 4.35483871,6.38709677 4.35483871,7.25806452 C4.35483871,8.12903226 4.93548387,8.70967742 5.80645161,8.70967742 Z" id="Path"></path>
            <path d="M11.0322581,8.70967742 C11.9032258,8.70967742 12.483871,8.12903226 12.483871,7.25806452 C12.483871,6.38709677 11.9032258,5.80645161 11.0322581,5.80645161 C10.1612903,5.80645161 9.58064516,6.38709677 9.58064516,7.25806452 C9.58064516,8.12903226 10.1612903,8.70967742 11.0322581,8.70967742 Z" id="Path"></path>
            <path d="M16.1129032,8.70967742 C16.983871,8.70967742 17.5645161,8.12903226 17.5645161,7.25806452 C17.5645161,6.38709677 16.983871,5.80645161 16.1129032,5.80645161 C15.2419355,5.80645161 14.6612903,6.38709677 14.6612903,7.25806452 C14.6612903,8.12903226 15.3870968,8.70967742 16.1129032,8.70967742 Z" id="Path"></path>
            <path d="M14.6612903,21.0483871 C14.0806452,20.4677419 13.2096774,20.3225806 12.6290323,20.9032258 L8.41935484,24.5322581 C8.12903226,24.8225806 7.98387097,25.2580645 7.98387097,25.5483871 C7.98387097,25.983871 8.12903226,26.4193548 8.41935484,26.5645161 L12.483871,30.3387097 C12.7741935,30.6290323 13.0645161,30.7741935 13.5,30.7741935 C13.9354839,30.7741935 14.2258065,30.6290323 14.516129,30.3387097 C15.0967742,29.7580645 15.0967742,28.8870968 14.516129,28.3064516 L11.6129032,25.5483871 L14.6612903,22.9354839 C15.0967742,22.6451613 15.2419355,21.6290323 14.6612903,21.0483871 Z" id="Path"></path>
            <path d="M30.9193548,20.9032258 C30.3387097,20.3225806 29.4677419,20.4677419 28.8870968,21.0483871 C28.3064516,21.6290323 28.4516129,22.5 29.0322581,23.0806452 L32.0806452,25.6935484 L29.1774194,28.4516129 C28.5967742,29.0322581 28.5967742,29.9032258 29.1774194,30.483871 C29.4677419,30.7741935 29.9032258,30.9193548 30.1935484,30.9193548 C30.483871,30.9193548 30.9193548,30.7741935 31.2096774,30.483871 L35.2741935,26.7096774 C35.5645161,26.4193548 35.7096774,25.983871 35.7096774,25.6935484 C35.7096774,25.2580645 35.5645161,24.9677419 35.2741935,24.6774194 L30.9193548,20.9032258 Z" id="Path"></path>
            <path d="M24.8225806,20.4677419 C24.0967742,20.0322581 23.2258065,20.3225806 22.7903226,21.0483871 L18.2903226,28.7419355 C17.8548387,29.4677419 18.1451613,30.3387097 18.8709677,30.7741935 C19.1612903,30.9193548 19.3064516,30.9193548 19.5967742,30.9193548 C20.0322581,30.9193548 20.6129032,30.6290323 20.9032258,30.1935484 L25.4032258,22.5 C25.6935484,21.7741935 25.5483871,20.9032258 24.8225806,20.4677419 Z" id="Path"></path>
        </g>
    </g>
</svg>